<?xml version="1.0" encoding="UTF-8" standalone="no"?>
<svg
   xmlns:dc="http://purl.org/dc/elements/1.1/"
   xmlns:cc="http://creativecommons.org/ns#"
   xmlns:rdf="http://www.w3.org/1999/02/22-rdf-syntax-ns#"
   xmlns:svg="http://www.w3.org/2000/svg"
   xmlns="http://www.w3.org/2000/svg"
   xmlns:xlink="http://www.w3.org/1999/xlink"
   xmlns:sodipodi="http://sodipodi.sourceforge.net/DTD/sodipodi-0.dtd"
   xmlns:inkscape="http://www.inkscape.org/namespaces/inkscape"
   id="ae37f038-3a9e-4b82-ad68-fc94ba16af2a"
   data-name="Layer 1"
   width="1096"
   height="574.74"
   viewBox="0 0 1096 574.74"
   version="1.1"
   sodipodi:docname="contact_us.svg"
   inkscape:version="0.92.3 (2405546, 2018-03-11)">
  <metadata
     id="metadata454">
    <rdf:RDF>
      <cc:Work
         rdf:about="">
        <dc:format>image/svg+xml</dc:format>
        <dc:type
           rdf:resource="http://purl.org/dc/dcmitype/StillImage" />
      </cc:Work>
    </rdf:RDF>
  </metadata>
  <sodipodi:namedview
     pagecolor="#ffffff"
     bordercolor="#666666"
     borderopacity="1"
     objecttolerance="10"
     gridtolerance="10"
     guidetolerance="10"
     inkscape:pageopacity="0"
     inkscape:pageshadow="2"
     inkscape:window-width="1358"
     inkscape:window-height="708"
     id="namedview452"
     showgrid="false"
     inkscape:zoom="0.51642336"
     inkscape:cx="452.56827"
     inkscape:cy="191.12023"
     inkscape:window-x="0"
     inkscape:window-y="27"
     inkscape:window-maximized="1"
     inkscape:current-layer="ae37f038-3a9e-4b82-ad68-fc94ba16af2a" />
  <defs
     id="defs115">
    <linearGradient
       id="eb6c86d6-45fa-49e0-9a60-1b0612516196"
       x1="819.07"
       y1="732.58"
       x2="819.07"
       y2="560.46"
       gradientUnits="userSpaceOnUse">
      <stop
         offset="0"
         stop-color="gray"
         stop-opacity="0.25"
         id="stop2" />
      <stop
         offset="0.54"
         stop-color="gray"
         stop-opacity="0.12"
         id="stop4" />
      <stop
         offset="1"
         stop-color="gray"
         stop-opacity="0.1"
         id="stop6" />
    </linearGradient>
    <pattern
       id="ad310e25-2b04-44c8-bb7b-982389166780"
       data-name="New Pattern 3"
       width="36.88"
       height="49.48"
       patternUnits="userSpaceOnUse"
       viewBox="0 0 36.88 49.48">
      <rect
         width="36.88"
         height="49.48"
         fill="none"
         id="rect9" />
      <path
         d="M4.33,13.19c4.5,0,4.51-7,0-7s-4.52,7,0,7Z"
         id="path11" />
      <path
         d="M4.51,17.16c4.51,0,4.52-7,0-7s-4.51,7,0,7Z"
         id="path13" />
      <path
         d="M4.51,20.94c4.51,0,4.52-7,0-7s-4.51,7,0,7Z"
         id="path15" />
      <path
         d="M3.38,24.72c4.51,0,4.51-7,0-7s-4.51,7,0,7Z"
         id="path17" />
      <path
         d="M1.09,28.29l.2.38a3.52,3.52,0,0,0,4.78,1.25,3.58,3.58,0,0,0,1.26-4.79l-.19-.37A3.52,3.52,0,0,0,2.35,23.5a3.59,3.59,0,0,0-1.26,4.79Z"
         id="path19" />
      <path
         d="M1.49,30.1l.18.57a3.73,3.73,0,0,0,1.61,2.09,3.59,3.59,0,0,0,2.7.35A3.54,3.54,0,0,0,8.42,28.8l-.18-.56a3.68,3.68,0,0,0-1.61-2.1,3.61,3.61,0,0,0-2.69-.35A3.56,3.56,0,0,0,1.49,30.1Z"
         id="path21" />
      <path
         d="M1.58,33.88v.38a3.54,3.54,0,0,0,3.5,3.5,3.56,3.56,0,0,0,3.5-3.5v-.38a3.54,3.54,0,0,0-3.5-3.5,3.57,3.57,0,0,0-3.5,3.5Z"
         id="path23" />
      <path
         d="M4.89,42.3c4.51,0,4.51-7,0-7s-4.51,7,0,7Z"
         id="path25" />
      <path
         d="M1.77,42v.19a3.54,3.54,0,0,0,3.5,3.5,3.56,3.56,0,0,0,3.5-3.5V42a3.54,3.54,0,0,0-3.5-3.5A3.56,3.56,0,0,0,1.77,42Z"
         id="path27" />
      <path
         d="M6,49.29c4.5,0,4.51-7,0-7s-4.52,7,0,7Z"
         id="path29" />
      <path
         d="M10,14.14c4.5,0,4.51-7,0-7s-4.52,7,0,7Z"
         id="path31" />
      <path
         d="M6.59,20.94c4.51,0,4.52-7,0-7s-4.51,7,0,7Z"
         id="path33" />
      <path
         d="M8.48,27c4.51,0,4.51-7,0-7s-4.51,7,0,7Z"
         id="path35" />
      <path
         d="M8.48,29.26c4.51,0,4.51-7,0-7s-4.51,7,0,7Z"
         id="path37" />
      <path
         d="M14.91,33.79c4.5,0,4.51-7,0-7s-4.51,7,0,7Z"
         id="path39" />
      <path
         d="M9.81,38.52c4.5,0,4.51-7,0-7s-4.52,7,0,7Z"
         id="path41" />
      <path
         d="M10.56,45.13c4.51,0,4.51-7,0-7s-4.51,7,0,7Z"
         id="path43" />
      <path
         d="M10.56,49.48c4.51,0,4.51-7,0-7s-4.51,7,0,7Z"
         id="path45" />
      <path
         d="M12.83,18.12c2.57,0,2.58-4,0-4s-2.58,4,0,4Z"
         id="path47" />
      <path
         d="M13,20.39c2.57,0,2.58-4,0-4s-2.58,4,0,4Z"
         id="path49" />
      <path
         d="M13.1,21v.19a2,2,0,0,0,4,0V21a2,2,0,0,0-4,0Z"
         id="path51" />
      <path
         d="M15.1,25.87c2.57,0,2.58-4,0-4s-2.58,4,0,4Z"
         id="path53" />
      <path
         d="M16.61,11.07a1,1,0,0,0,0-2,1,1,0,0,0,0,2Z"
         id="path55" />
      <path
         d="M21.71,16.55a1,1,0,0,0,0-2,1,1,0,0,0,0,2Z"
         id="path57" />
      <path
         d="M16.85,8.94V8.56a1,1,0,0,0-2,0v.38a1,1,0,0,0,2,0Z"
         id="path59" />
      <path
         d="M16.48,4.78V4.59a1,1,0,0,0-2,0v.19a1,1,0,0,0,2,0Z"
         id="path61" />
      <path
         d="M15.48,2a1,1,0,0,0,0-2,1,1,0,0,0,0,2Z"
         id="path63" />
      <path
         d="M10.56,2a1,1,0,0,0,0-2,1,1,0,0,0,0,2Z"
         id="path65" />
      <path
         d="M10.37,4.65a1,1,0,0,0,0-2,1,1,0,0,0,0,2Z"
         id="path67" />
      <path
         d="M7.35,6.16a1,1,0,0,0,0-2,1,1,0,0,0,0,2Z"
         id="path69" />
      <path
         d="M11.88,7.1h.38a1,1,0,0,0,0-2h-.38a1,1,0,0,0,0,2Z"
         id="path71" />
      <path
         d="M13.28,11l.57,1.32a1,1,0,0,0,1.37.36,1,1,0,0,0,.36-1.37L15,10a1,1,0,0,0-1.37-.36A1,1,0,0,0,13.28,11Z"
         id="path73" />
      <path
         d="M18.44,19.33v.19a1,1,0,0,0,2,0v-.19a1,1,0,0,0-2,0Z"
         id="path75" />
      <path
         d="M20.68,24.93l.19.38c.57,1.15,2.3.14,1.72-1l-.19-.38c-.57-1.15-2.3-.14-1.72,1Z"
         id="path77" />
      <path
         d="M22.13,29.38a2.48,2.48,0,0,0-.84,1.86,1,1,0,0,0,2,0,.56.56,0,0,1,.25-.44,1,1,0,0,0,0-1.42,1,1,0,0,0-1.41,0Z"
         id="path79" />
      <path
         d="M20.32,33.41l-.54,1.71c-.38,1.23,1.55,1.76,1.93.53l.54-1.71c.38-1.23-1.55-1.76-1.93-.53Z"
         id="path81" />
      <path
         d="M19.44,37h-.19a1,1,0,0,0,0,2h.19a1,1,0,0,0,0-2Z"
         id="path83" />
      <path
         d="M17.64,41.5l-.19.38c-.58,1.15,1.15,2.16,1.72,1l.19-.38c.58-1.15-1.15-2.16-1.72-1Z"
         id="path85" />
      <path
         d="M15.8,47.87v.56a1,1,0,0,0,2,0v-.56a1,1,0,0,0-2,0Z"
         id="path87" />
      <path
         d="M14.34,49.43a1,1,0,0,0,0-2,1,1,0,0,0,0,2Z"
         id="path89" />
      <path
         d="M14.34,41.31a1,1,0,0,0,0-2,1,1,0,0,0,0,2Z"
         id="path91" />
      <path
         d="M17.13,36.47a2,2,0,0,0,1-1.64,1,1,0,0,0-2,0c0-.13.19-.2,0-.08-1.15.58-.14,2.3,1,1.72Z"
         id="path93" />
      <path
         d="M17.37,31.29a1,1,0,0,0,0-2,1,1,0,0,0,0,2Z"
         id="path95" />
      <path
         d="M18.12,28.46a1,1,0,0,0,0-2,1,1,0,0,0,0,2Z"
         id="path97" />
      <path
         d="M19,24.94l.19-.38c.58-1.15-1.15-2.16-1.72-1l-.19.38c-.58,1.15,1.15,2.16,1.72,1Z"
         id="path99" />
      <path
         d="M17.93,16a1,1,0,0,0,0-2,1,1,0,0,0,0,2Z"
         id="path101" />
      <path
         d="M24.64,16.05l.57.94a1,1,0,0,0,1.72-1L26.37,15a1,1,0,0,0-1.73,1Z"
         id="path103" />
      <path
         d="M34.88,29.72v.19a1,1,0,0,0,2,0v-.19a1,1,0,0,0-2,0Z"
         id="path105" />
      <path
         d="M24,39.23a1,1,0,0,0,0-2,1,1,0,0,0,0,2Z"
         id="path107" />
      <path
         d="M22.85,29a1,1,0,0,0,0-2,1,1,0,0,0,0,2Z"
         id="path109" />
      <path
         d="M18.24,21.9l.57-.56c.93-.89-.48-2.3-1.41-1.41l-.58.56c-.93.89.49,2.3,1.42,1.41Z"
         id="path111" />
    </pattern>
    <linearGradient
       id="a964f849-fa65-4178-8cc4-fb8fb10b3617"
       x1="462.91"
       y1="660.68"
       x2="462.91"
       y2="559.69"
       xlink:href="#eb6c86d6-45fa-49e0-9a60-1b0612516196" />
    <linearGradient
       gradientUnits="userSpaceOnUse"
       y2="230.62"
       x2="569.11"
       y1="596.37"
       x1="569.11"
       id="6beaf3f8-3e45-4d0f-940e-4f825d2ab248">
      <stop
         id="stop2-8"
         stop-opacity="0.25"
         stop-color="gray"
         offset="0" />
      <stop
         id="stop4-4"
         stop-opacity="0.12"
         stop-color="gray"
         offset="0.54" />
      <stop
         id="stop6-8"
         stop-opacity="0.1"
         stop-color="gray"
         offset="1" />
    </linearGradient>
    <linearGradient
       xlink:href="#6beaf3f8-3e45-4d0f-940e-4f825d2ab248"
       y2="175.07"
       x2="878.33"
       y1="643.77"
       x1="878.33"
       id="618658e0-5682-4211-900b-639feb09c488" />
  </defs>
  <title
     id="title117">contact us</title>
  <g
     opacity="0.1"
     id="g131">
    <ellipse
       cx="479.42"
       cy="362.12"
       rx="11.38"
       ry="14.9"
       fill="#3f3d56"
       id="ellipse119" />
    <path
       d="M540.43,461a18,18,0,0,0,2.38-9.11c0-8.23-5.1-14.9-11.39-14.9S520,443.68,520,451.91a18,18,0,0,0,2.38,9.11,18.61,18.61,0,0,0,0,18.21,18.61,18.61,0,0,0,0,18.21,17.94,17.94,0,0,0-2.38,9.11c0,8.22,5.1,14.9,11.38,14.9s11.39-6.68,11.39-14.9a17.94,17.94,0,0,0-2.38-9.11,18.61,18.61,0,0,0,0-18.21,18.61,18.61,0,0,0,0-18.21Z"
       transform="translate(-52 -162.63)"
       fill="#3f3d56"
       id="path121" />
    <ellipse
       cx="479.42"
       cy="271.07"
       rx="11.38"
       ry="14.9"
       fill="#3f3d56"
       id="ellipse123" />
    <ellipse
       cx="479.42"
       cy="252.86"
       rx="11.38"
       ry="14.9"
       fill="#3f3d56"
       id="ellipse125" />
    <path
       d="M488.82,290.86a53.08,53.08,0,0,1-4.24-6.24l29.9-4.91-32.34.24a54.62,54.62,0,0,1-1-43.2l43.39,22.51-40-29.42a54.53,54.53,0,1,1,90,61,54.54,54.54,0,0,1,6.22,9.94L541.92,321l41.39-13.89a54.53,54.53,0,0,1-8.79,51.2,54.52,54.52,0,1,1-85.7,0,54.52,54.52,0,0,1,0-67.42Z"
       transform="translate(-52 -162.63)"
       fill="#6c63ff"
       id="path127" />
    <path
       d="M586.19,324.57a54.27,54.27,0,0,1-11.67,33.71,54.52,54.52,0,1,1-85.7,0C481.51,349,586.19,318.45,586.19,324.57Z"
       transform="translate(-52 -162.63)"
       opacity="0.1"
       id="path129" />
  </g>
  <g
     opacity="0.1"
     id="g145">
    <ellipse
       cx="612.28"
       cy="330.26"
       rx="8.51"
       ry="11.13"
       fill="#3f3d56"
       id="ellipse133" />
    <path
       d="M671,445.26a13.43,13.43,0,0,0,1.77-6.8c0-6.15-3.81-11.14-8.5-11.14s-8.51,5-8.51,11.14a13.33,13.33,0,0,0,1.78,6.8,13.9,13.9,0,0,0,0,13.61,13.9,13.9,0,0,0,0,13.61,13.33,13.33,0,0,0-1.78,6.8c0,6.15,3.81,11.14,8.51,11.14s8.5-5,8.5-11.14a13.43,13.43,0,0,0-1.77-6.8,14,14,0,0,0,0-13.61,14,14,0,0,0,0-13.61Z"
       transform="translate(-52 -162.63)"
       fill="#3f3d56"
       id="path135" />
    <ellipse
       cx="612.28"
       cy="262.22"
       rx="8.51"
       ry="11.13"
       fill="#3f3d56"
       id="ellipse137" />
    <ellipse
       cx="612.28"
       cy="248.61"
       rx="8.51"
       ry="11.13"
       fill="#3f3d56"
       id="ellipse139" />
    <path
       d="M632.44,318.11a39,39,0,0,1-3.17-4.66l22.35-3.67-24.17.18a40.84,40.84,0,0,1-.78-32.29L659.1,294.5l-29.91-22a40.75,40.75,0,1,1,67.29,45.6,41.2,41.2,0,0,1,4.65,7.43l-29,15.07,30.93-10.38a40.76,40.76,0,0,1-6.57,38.26,40.74,40.74,0,1,1-64,0,40.74,40.74,0,0,1,0-50.38Z"
       transform="translate(-52 -162.63)"
       fill="#6c63ff"
       id="path141" />
    <path
       d="M705.2,343.3a40.57,40.57,0,0,1-8.72,25.19,40.74,40.74,0,1,1-64,0C627,361.56,705.2,338.73,705.2,343.3Z"
       transform="translate(-52 -162.63)"
       opacity="0.1"
       id="path143" />
  </g>
  <g
     opacity="0.1"
     id="g159">
    <ellipse
       cx="1038.58"
       cy="322.12"
       rx="11.38"
       ry="14.9"
       fill="#3f3d56"
       id="ellipse147" />
    <path
       d="M1081.57,421a18,18,0,0,1-2.38-9.11c0-8.23,5.1-14.9,11.39-14.9s11.38,6.67,11.38,14.9a18,18,0,0,1-2.38,9.11,18.61,18.61,0,0,1,0,18.21,18.61,18.61,0,0,1,0,18.21,17.94,17.94,0,0,1,2.38,9.11c0,8.22-5.1,14.9-11.38,14.9s-11.39-6.68-11.39-14.9a17.94,17.94,0,0,1,2.38-9.11,18.61,18.61,0,0,1,0-18.21,18.61,18.61,0,0,1,0-18.21Z"
       transform="translate(-52 -162.63)"
       fill="#3f3d56"
       id="path149" />
    <ellipse
       cx="1038.58"
       cy="231.07"
       rx="11.38"
       ry="14.9"
       fill="#3f3d56"
       id="ellipse151" />
    <ellipse
       cx="1038.58"
       cy="212.86"
       rx="11.38"
       ry="14.9"
       fill="#3f3d56"
       id="ellipse153" />
    <path
       d="M1133.18,250.86a53.08,53.08,0,0,0,4.24-6.24l-29.9-4.91,32.34.24a54.62,54.62,0,0,0,1-43.2l-43.39,22.51,40-29.42a54.53,54.53,0,1,0-90,61,54.54,54.54,0,0,0-6.22,9.94L1080.08,281l-41.39-13.89a54.53,54.53,0,0,0,8.79,51.2,54.52,54.52,0,1,0,85.7,0,54.52,54.52,0,0,0,0-67.42Z"
       transform="translate(-52 -162.63)"
       fill="#6c63ff"
       id="path155" />
    <path
       d="M1035.81,284.57a54.27,54.27,0,0,0,11.67,33.71,54.52,54.52,0,1,0,85.7,0C1140.49,309,1035.81,278.45,1035.81,284.57Z"
       transform="translate(-52 -162.63)"
       opacity="0.1"
       id="path157" />
  </g>
  <g
     opacity="0.1"
     id="g173">
    <ellipse
       cx="928.72"
       cy="324.26"
       rx="8.51"
       ry="11.13"
       fill="#3f3d56"
       id="ellipse161" />
    <path
       d="M974,439.26a13.43,13.43,0,0,1-1.77-6.8c0-6.15,3.81-11.14,8.5-11.14s8.51,5,8.51,11.14a13.33,13.33,0,0,1-1.78,6.8,13.9,13.9,0,0,1,0,13.61,13.9,13.9,0,0,1,0,13.61,13.33,13.33,0,0,1,1.78,6.8c0,6.15-3.81,11.14-8.51,11.14s-8.5-5-8.5-11.14a13.43,13.43,0,0,1,1.77-6.8,14,14,0,0,1,0-13.61,14,14,0,0,1,0-13.61Z"
       transform="translate(-52 -162.63)"
       fill="#3f3d56"
       id="path163" />
    <ellipse
       cx="928.72"
       cy="256.22"
       rx="8.51"
       ry="11.13"
       fill="#3f3d56"
       id="ellipse165" />
    <ellipse
       cx="928.72"
       cy="242.61"
       rx="8.51"
       ry="11.13"
       fill="#3f3d56"
       id="ellipse167" />
    <path
       d="M1012.56,312.11a39,39,0,0,0,3.17-4.66l-22.35-3.67,24.17.18a40.84,40.84,0,0,0,.78-32.29L985.9,288.5l29.91-22a40.75,40.75,0,1,0-67.29,45.6,41.2,41.2,0,0,0-4.65,7.43l29,15.07L942,324.23a40.76,40.76,0,0,0,6.57,38.26,40.74,40.74,0,1,0,64,0,40.74,40.74,0,0,0,0-50.38Z"
       transform="translate(-52 -162.63)"
       fill="#6c63ff"
       id="path169" />
    <path
       d="M939.8,337.3a40.57,40.57,0,0,0,8.72,25.19,40.74,40.74,0,1,0,64,0C1018,355.56,939.8,332.73,939.8,337.3Z"
       transform="translate(-52 -162.63)"
       opacity="0.1"
       id="path171" />
  </g>
  <g
     opacity="0.1"
     id="g187">
    <ellipse
       cx="61.59"
       cy="322.12"
       rx="11.38"
       ry="14.9"
       fill="#3f3d56"
       id="ellipse175" />
    <path
       d="M122.59,421a18,18,0,0,0,2.38-9.11c0-8.23-5.1-14.9-11.38-14.9s-11.38,6.67-11.38,14.9a18,18,0,0,0,2.37,9.11,18.67,18.67,0,0,0,0,18.21,18.67,18.67,0,0,0,0,18.21,17.93,17.93,0,0,0-2.37,9.11c0,8.22,5.09,14.9,11.38,14.9S125,474.77,125,466.55a17.94,17.94,0,0,0-2.38-9.11,18.61,18.61,0,0,0,0-18.21,18.61,18.61,0,0,0,0-18.21Z"
       transform="translate(-52 -162.63)"
       fill="#3f3d56"
       id="path177" />
    <ellipse
       cx="61.59"
       cy="231.07"
       rx="11.38"
       ry="14.9"
       fill="#3f3d56"
       id="ellipse179" />
    <ellipse
       cx="61.59"
       cy="212.86"
       rx="11.38"
       ry="14.9"
       fill="#3f3d56"
       id="ellipse181" />
    <path
       d="M71,250.86a54.33,54.33,0,0,1-4.24-6.24l29.91-4.91L64.3,240a54.62,54.62,0,0,1-1-43.2l43.4,22.51-40-29.42a54.52,54.52,0,1,1,90,61,54.54,54.54,0,0,1,6.22,9.94L124.08,281l41.4-13.89a54.59,54.59,0,0,1-8.8,51.2,54.52,54.52,0,1,1-85.7,0,54.52,54.52,0,0,1,0-67.42Z"
       transform="translate(-52 -162.63)"
       fill="#6c63ff"
       id="path183" />
    <path
       d="M168.35,284.57a54.27,54.27,0,0,1-11.67,33.71,54.52,54.52,0,1,1-85.7,0C63.67,309,168.35,278.45,168.35,284.57Z"
       transform="translate(-52 -162.63)"
       opacity="0.1"
       id="path185" />
  </g>
  <g
     opacity="0.1"
     id="g201">
    <ellipse
       cx="171.44"
       cy="324.26"
       rx="8.51"
       ry="11.13"
       fill="#3f3d56"
       id="ellipse189" />
    <path
       d="M230.17,439.26a13.43,13.43,0,0,0,1.77-6.8c0-6.15-3.8-11.14-8.5-11.14s-8.51,5-8.51,11.14a13.43,13.43,0,0,0,1.78,6.8,13.9,13.9,0,0,0,0,13.61,13.9,13.9,0,0,0,0,13.61,13.43,13.43,0,0,0-1.78,6.8c0,6.15,3.81,11.14,8.51,11.14s8.5-5,8.5-11.14a13.43,13.43,0,0,0-1.77-6.8,14,14,0,0,0,0-13.61,14,14,0,0,0,0-13.61Z"
       transform="translate(-52 -162.63)"
       fill="#3f3d56"
       id="path191" />
    <ellipse
       cx="171.44"
       cy="256.22"
       rx="8.51"
       ry="11.13"
       fill="#3f3d56"
       id="ellipse193" />
    <ellipse
       cx="171.44"
       cy="242.61"
       rx="8.51"
       ry="11.13"
       fill="#3f3d56"
       id="ellipse195" />
    <path
       d="M191.6,312.11a40.21,40.21,0,0,1-3.17-4.66l22.35-3.67-24.17.18a40.84,40.84,0,0,1-.78-32.29l32.43,16.83-29.91-22a40.75,40.75,0,1,1,67.29,45.6,40.12,40.12,0,0,1,4.65,7.43l-29,15.07,30.93-10.38a40.76,40.76,0,0,1-6.57,38.26,40.74,40.74,0,1,1-64,0,40.74,40.74,0,0,1,0-50.38Z"
       transform="translate(-52 -162.63)"
       fill="#6c63ff"
       id="path197" />
    <path
       d="M264.36,337.3a40.57,40.57,0,0,1-8.72,25.19,40.74,40.74,0,1,1-64,0C186.14,355.56,264.36,332.73,264.36,337.3Z"
       transform="translate(-52 -162.63)"
       opacity="0.1"
       id="path199" />
  </g>
  <ellipse
     cx="548"
     cy="493.13"
     rx="548"
     ry="8.86"
     fill="#6c63ff"
     opacity="0.1"
     id="ellipse203" />
  <ellipse
     cx="548"
     cy="565.88"
     rx="548"
     ry="8.86"
     id="ellipse205"
     fill="#6c63ff"
     opacity="0.1" />
  <ellipse
     cx="548"
     cy="341.3"
     rx="548"
     ry="8.86"
     fill="#6c63ff"
     opacity="0.1"
     id="ellipse207" />
  <ellipse
     cx="548"
     cy="417.21"
     rx="548"
     ry="8.86"
     fill="#6c63ff"
     opacity="0.1"
     id="ellipse209" />
  <path
     d="M860.79,273a18.3,18.3,0,0,0-10.6,1.16,15.65,15.65,0,0,1-12.74,0,17.88,17.88,0,0,0-15,.29,9.24,9.24,0,0,1-4.31,1.08c-6.08,0-11.13-6.12-12.18-14.19a11.88,11.88,0,0,0,3-3.27c3.56-5.74,9.07-9.43,15.27-9.43s11.64,3.64,15.2,9.32a11.68,11.68,0,0,0,10.09,5.54h.16C854.57,263.45,858.76,267.33,860.79,273Z"
     transform="translate(-52 -162.63)"
     fill="#6c63ff"
     opacity="0.1"
     id="path211" />
  <path
     d="M879.3,247.65l-9.82,6.22,6-10.84a9.7,9.7,0,0,0-5.94-2.11h-.16a11.35,11.35,0,0,1-2-.15L864,242.88l1.43-2.6a11.79,11.79,0,0,1-5.83-4.42l-6,3.78,3.76-6.84c-3.48-4.18-8.18-6.74-13.34-6.74-6.2,0-11.71,3.68-15.28,9.42a11.41,11.41,0,0,1-10.09,5.44h-.33c-6.84,0-12.38,7.75-12.38,17.31s5.54,17.32,12.38,17.32a9.39,9.39,0,0,0,4.31-1.08,17.86,17.86,0,0,1,15-.3,15.55,15.55,0,0,0,12.74,0,17.92,17.92,0,0,1,14.86.29,9.3,9.3,0,0,0,4.26,1.06c6.84,0,12.38-7.76,12.38-17.32A21.93,21.93,0,0,0,879.3,247.65Z"
     transform="translate(-52 -162.63)"
     fill="#6c63ff"
     opacity="0.1"
     id="path213" />
  <path
     d="M443.26,267.59a12.84,12.84,0,0,0-7.43.81,10.92,10.92,0,0,1-8.91,0,12.48,12.48,0,0,0-10.49.21,6.62,6.62,0,0,1-3,.75c-4.25,0-7.79-4.28-8.53-9.93a8.32,8.32,0,0,0,2.13-2.29c2.49-4,6.35-6.6,10.69-6.6s8.15,2.55,10.64,6.52a8.19,8.19,0,0,0,7.07,3.88h.11C438.9,260.92,441.83,263.64,443.26,267.59Z"
     transform="translate(-52 -162.63)"
     fill="#6c63ff"
     opacity="0.1"
     id="path215" />
  <path
     d="M456.21,249.86l-6.87,4.36,4.17-7.59a6.75,6.75,0,0,0-4.15-1.48h-.12a7.49,7.49,0,0,1-1.42-.11l-2.33,1.48,1-1.82a8.3,8.3,0,0,1-4.08-3.09l-4.17,2.64,2.64-4.78a12.21,12.21,0,0,0-9.34-4.73c-4.34,0-8.2,2.58-10.69,6.6a8,8,0,0,1-7.07,3.81h-.23c-4.79,0-8.67,5.42-8.67,12.12s3.88,12.12,8.67,12.12a6.5,6.5,0,0,0,3-.76,12.5,12.5,0,0,1,10.48-.2,11.1,11.1,0,0,0,4.49,1,11,11,0,0,0,4.43-.94,12.54,12.54,0,0,1,10.4.2,6.48,6.48,0,0,0,3,.74c4.78,0,8.66-5.43,8.66-12.12A15.33,15.33,0,0,0,456.21,249.86Z"
     transform="translate(-52 -162.63)"
     fill="#6c63ff"
     opacity="0.1"
     id="path217" />
  <path
     d="M321.59,346a12.82,12.82,0,0,1,7.42.81,10.94,10.94,0,0,0,8.92,0,12.52,12.52,0,0,1,10.49.2,6.47,6.47,0,0,0,3,.76c4.25,0,7.79-4.29,8.52-9.94a8.15,8.15,0,0,1-2.12-2.29c-2.5-4-6.36-6.59-10.69-6.59s-8.15,2.54-10.65,6.52a8.19,8.19,0,0,1-7.06,3.88h-.11C325.94,339.37,323,342.08,321.59,346Z"
     transform="translate(-52 -162.63)"
     fill="#6c63ff"
     opacity="0.1"
     id="path219" />
  <path
     d="M308.63,328.3l6.88,4.36-4.18-7.58a6.79,6.79,0,0,1,4.16-1.49h.11a8.52,8.52,0,0,0,1.43-.1l2.33,1.47-1-1.81a8.29,8.29,0,0,0,4.07-3.09l4.17,2.64L324,317.91a12.2,12.2,0,0,1,9.34-4.72c4.33,0,8.2,2.58,10.69,6.6a8,8,0,0,0,7.06,3.81h.24c4.78,0,8.66,5.43,8.66,12.12s-3.88,12.12-8.66,12.12a6.49,6.49,0,0,1-3-.75,12.48,12.48,0,0,0-10.49-.21,10.86,10.86,0,0,1-4.48,1,11,11,0,0,1-4.44-.94,12.52,12.52,0,0,0-10.39.2,6.48,6.48,0,0,1-3,.74c-4.79,0-8.67-5.42-8.67-12.12A15.44,15.44,0,0,1,308.63,328.3Z"
     transform="translate(-52 -162.63)"
     fill="#6c63ff"
     opacity="0.1"
     id="path221" />
  <circle
     cx="779.73"
     cy="238.18"
     r="99.96"
     fill="#3f3d56"
     id="circle277"
     style="fill:#29303b;fill-opacity:1" />
  <path
     d="M874.64,426.59c-3.48-3.48-11.85-8.73-16-10.69-4.79-2.3-6.55-2.26-9.94.19-2.82,2-4.65,3.93-7.89,3.22s-9.66-5.55-15.87-11.74S813.91,395,813.22,391.71s1.21-5.08,3.23-7.9c2.44-3.39,2.51-5.15.19-9.94-2-4.15-7.19-12.5-10.7-16s-4.27-2.73-6.19-2a35.8,35.8,0,0,0-5.67,3c-3.48,2.33-5.43,4.27-6.8,7.19s-2.92,8.34,5.05,22.53a125.69,125.69,0,0,0,22.1,29.47l0,0,0,0A125.88,125.88,0,0,0,844,440.2c14.18,8,19.61,6.41,22.53,5.05s4.86-3.29,7.18-6.8a35.33,35.33,0,0,0,3-5.67C877.37,430.86,878.15,430.08,874.64,426.59Z"
     transform="translate(-52 -162.63)"
     fill="#6c63ff"
     id="path279"
     style="fill:#f04d00;fill-opacity:1" />
  <path
     d="M831.73,300.86a100,100,0,1,0,99.95,99.95A100,100,0,0,0,831.73,300.86Zm0,186.62a86.67,86.67,0,1,1,86.67-86.67A86.67,86.67,0,0,1,831.73,487.48Z"
     transform="translate(-52 -162.63)"
     opacity="0.1"
     id="path281"
     style="fill:#29303b;fill-opacity:1" />
  <circle
     cx="550.08"
     cy="390.01"
     r="99.96"
     fill="#3f3d56"
     id="circle283"
     style="fill:#29303b;fill-opacity:1" />
  <path
     d="M658.93,522.44,629,552.89a.54.54,0,0,0,0,.78L650,576a3.62,3.62,0,0,1-2.55,6.17,3.64,3.64,0,0,1-2.56-1.06L624,558.86a.57.57,0,0,0-.8,0L618.11,564a22.37,22.37,0,0,1-16,6.73,22.86,22.86,0,0,1-16.28-6.92l-4.89-5a.57.57,0,0,0-.8,0l-20.84,22.2a3.61,3.61,0,0,1-5.11,0,3.6,3.6,0,0,1,0-5.11l20.92-22.28a.6.6,0,0,0,0-.78l-29.93-30.45a.55.55,0,0,0-.94.39v60.93a8.92,8.92,0,0,0,8.89,8.89H651a8.92,8.92,0,0,0,8.89-8.89V522.83A.55.55,0,0,0,658.93,522.44Z"
     transform="translate(-52 -162.63)"
     fill="#6c63ff"
     id="path285"
     style="fill:#f04d00;fill-opacity:1" />
  <path
     d="M602.08,563.5A15.14,15.14,0,0,0,613,559l43.59-44.37a8.7,8.7,0,0,0-5.5-2H553.15a8.64,8.64,0,0,0-5.5,2L591.25,559A15.08,15.08,0,0,0,602.08,563.5Z"
     transform="translate(-52 -162.63)"
     fill="#6c63ff"
     id="path287"
     style="fill:#f04d00;fill-opacity:1" />
  <path
     d="M600.82,452.69a100,100,0,1,0,99.95,99.95A100,100,0,0,0,600.82,452.69Zm0,186.62a86.67,86.67,0,1,1,86.67-86.67A86.67,86.67,0,0,1,600.82,639.31Z"
     transform="translate(-52 -162.63)"
     opacity="0.1"
     id="path289" />
  <circle
     cx="312.85"
     cy="315.36"
     r="99.96"
     fill="#3f3d56"
     id="circle291"
     style="fill:#29303b;fill-opacity:1" />
  <path
     d="M364.85,430.16,325,522.1l3.72,3.72,36.14-15.94L401,525.82l3.72-3.72Z"
     transform="translate(-52 -162.63)"
     fill="#6c63ff"
     id="path293"
     style="fill:#f04d00;fill-opacity:1" />
  <path
     d="M364.85,378A100,100,0,1,0,464.8,478,100,100,0,0,0,364.85,378Zm0,186.62A86.67,86.67,0,1,1,451.52,478,86.67,86.67,0,0,1,364.85,564.66Z"
     transform="translate(-52 -162.63)"
     opacity="0.1"
     id="path295" />
</svg>
